<?xml version="1.0" standalone="no"?>
<!DOCTYPE svg PUBLIC "-//W3C//DTD SVG 20010904//EN"
 "http://www.w3.org/TR/2001/REC-SVG-20010904/DTD/svg10.dtd">
<svg version="1.0" xmlns="http://www.w3.org/2000/svg"
 width="299.000000pt" height="299.000000pt" viewBox="0 0 299.000000 299.000000"
 preserveAspectRatio="xMidYMid meet">
<metadata>
Created by potrace 1.11, written by Peter Selinger 2001-2013
</metadata>
<g transform="translate(0.000000,299.000000) scale(0.100000,-0.100000)"
fill="#000000" stroke="none">
<path d="M1378 2985 c-2 -2 -19 -6 -38 -9 -19 -4 -39 -8 -45 -10 -5 -1 -26 -6
-45 -10 -19 -4 -44 -11 -55 -16 -177 -75 -252 -124 -355 -230 -81 -84 -82 -85
-121 -146 -88 -134 -130 -274 -135 -449 -3 -116 -1 -137 19 -197 13 -38 22
-68 21 -68 -2 0 25 -55 60 -122 64 -126 99 -182 171 -278 23 -30 48 -68 57
-85 42 -84 89 -170 99 -182 6 -7 9 -13 5 -13 -4 0 2 -17 13 -38 24 -47 60
-166 66 -217 8 -66 16 -176 19 -245 3 -73 14 -100 51 -124 31 -21 32 -33 0
-58 -31 -24 -31 -33 1 -63 l25 -24 -25 -16 c-31 -21 -33 -39 -7 -62 18 -15 19
-19 5 -45 l-15 -29 83 -79 c45 -43 85 -77 89 -75 4 3 22 -13 41 -34 41 -47 95
-64 180 -57 54 4 64 9 98 45 21 21 50 46 66 54 30 16 96 82 126 126 20 30 24
71 6 71 -6 0 -2 10 10 23 28 29 28 44 0 66 l-21 18 21 21 c28 28 28 40 -4 67
l-25 22 24 29 c33 39 36 53 42 174 2 58 7 123 11 145 3 22 8 54 10 70 17 110
54 190 169 365 170 259 257 413 270 478 1 9 11 44 21 77 33 114 42 189 39 315
-1 69 -6 139 -9 155 -57 253 -183 420 -408 539 -61 32 -191 81 -241 90 -12 3
-22 5 -22 6 0 1 -11 3 -25 6 -14 2 -38 6 -55 9 -33 6 -262 15 -267 10z"/>
</g>
</svg>
